<svg width="390" height="844" viewBox="0 0 390 844" fill="none" xmlns="http://www.w3.org/2000/svg">
<rect width="390" height="844" fill="white"/>
<path d="M390 0H0V337.039C17.4984 346.974 39.8048 353.026 67.9095 350.377C151.79 342.292 314.806 198.473 390 160.674V0Z" fill="#7DD2FF"/>
<path opacity="0.2" d="M390 0H170C171.091 48.3617 187.801 94.7235 217.144 130.809C246.488 166.894 286.556 190.354 330.196 197C353.143 181.363 373.728 168.207 390 160.035V0Z" fill="white"/>
<path d="M191.325 492.75V492.837C190.468 488.165 193.933 486.117 197.608 485.68C199.456 485.443 201.282 485.057 203.068 484.525C209.07 482.775 214.688 479.887 215.773 479.642H231.75C231.663 486.8 231.628 491.525 231.645 492.767L191.325 492.75Z" fill="black"/>
<path d="M191.272 492.925H162.94C162.117 488.27 165.582 486.223 169.24 485.803C176.852 484.91 185.987 480.063 187.405 479.765H202.98C202.98 482.478 202.98 484.105 202.98 484.438V484.665C201.194 485.197 199.368 485.583 197.52 485.82C193.897 486.205 190.415 488.235 191.272 492.925Z" fill="black"/>
<path d="M167.91 322.247C169.66 310.627 171.41 299.165 172.617 292.497C172.617 292.497 159.825 299.637 158.495 305.587C158.005 307.775 165.162 318.677 167.892 322.195L167.91 322.247ZM219.885 308.737C218.135 309 216.385 309.175 214.757 309.297C214.297 308.712 213.702 308.246 213.022 307.942C212.342 307.637 211.599 307.502 210.855 307.547C210.064 307.488 209.272 307.641 208.561 307.992C207.85 308.343 207.246 308.878 206.812 309.542C199.042 309.542 195.035 310.312 193.775 311.047C191.01 312.657 189.435 314.39 189.522 317.645C189.615 320.529 190.427 323.345 191.885 325.835V325.835C192.096 326.165 192.336 326.476 192.602 326.762C193.649 327.851 195.083 328.48 196.592 328.512C197.222 328.512 199.305 328.127 199.55 327.322C199.795 326.517 199.13 325.8 198.762 325.572C197.975 324.907 197.012 325.135 196.172 325.012C194.107 323.262 200.915 320.287 207.74 320.357H209.367H213.497C215.475 320.357 217.575 320.182 219.745 320.007C218.998 318.229 218.613 316.319 218.613 314.39C218.613 312.461 218.998 310.551 219.745 308.772L219.885 308.737ZM229.125 306.217C229.755 305.895 230.343 305.495 230.875 305.027C234.69 301.527 234.375 296.015 228.022 291.185C228.022 291.185 228.495 299.007 229.02 306.077L229.125 306.217ZM229.947 318.66C231.137 334.865 232.607 353.747 232.8 356.88L163.92 357.037C163.92 353.887 164.515 348.392 165.302 341.812C165.985 336.002 166.877 329.352 167.805 322.737H167.63C164.86 325.133 162.848 328.283 161.837 331.802C161.742 332.767 161.79 333.74 161.977 334.69H161.837C149.167 325.747 141.31 313.34 139 304.45C136.375 294.44 161.365 275.312 167.35 271.2C173.982 266.65 188.647 264.41 188.647 264.41C189.225 262.957 189.522 261.645 190.922 260.787L191.255 260.647C197.375 259.736 203.597 259.736 209.717 260.647H209.91C211.327 260.91 212.202 263.272 212.115 264.462C212.115 264.462 227.445 265.477 231.225 267.612C236.282 270.5 256.25 296.207 251.105 307.057C248.077 313.427 239.327 316.875 230 318.66H229.947Z" fill="black"/>
<path d="M212.5 313.34C212.369 315.83 212.774 318.318 213.69 320.637" stroke="black" stroke-width="0.86" stroke-miterlimit="10"/>
<path d="M208.37 313.06C208.198 315.67 208.599 318.286 209.543 320.725" stroke="black" stroke-width="0.86" stroke-miterlimit="10"/>
<path d="M219.587 319.955C216.087 320.147 210.4 320.445 207.792 320.392" stroke="black" stroke-width="0.86" stroke-linejoin="round"/>
<path d="M203.452 437.31C203.225 462.58 202.875 483.16 202.962 484.385" stroke="black" stroke-width="0.86" stroke-miterlimit="10"/>
<path d="M230 318.748C231.19 334.953 232.66 353.835 232.853 356.968L163.973 357.125C164.218 346.258 169.905 307.303 172.723 292.568C172.723 292.568 159.843 299.69 158.513 305.64C158.023 307.828 165.268 318.73 167.998 322.248" stroke="black" stroke-width="0.86" stroke-linejoin="round"/>
<path d="M165.425 341.778C164.416 342.888 163.113 343.691 161.667 344.094C160.221 344.496 158.691 344.482 157.253 344.052C155.03 343.212 154.05 342.057 155.503 340.395C156.955 338.732 158.845 340.027 160.56 339.555C163.43 338.75 161.348 334.025 161.803 331.872C162.813 328.353 164.825 325.203 167.595 322.807" stroke="black" stroke-width="0.86" stroke-miterlimit="10"/>
<path d="M228.145 292.638C228.145 291.728 228.145 291.185 228.145 291.185C234.427 296.015 234.812 301.528 230.98 305.028C228.722 307.093 219.972 308.773 219.972 308.773C219.195 310.529 218.775 312.422 218.739 314.343C218.703 316.263 219.051 318.171 219.762 319.955C232.52 319.08 246.905 316.07 251.262 307.058C256.407 296.208 236.44 270.448 231.365 267.56C227.585 265.425 212.255 264.41 212.255 264.41C212.255 263.22 211.467 260.91 210.05 260.595C203.925 259.44 192.41 259.965 191.062 260.788C189.715 261.61 189.312 262.958 188.787 264.41C188.787 264.41 174.122 266.65 167.49 271.2C161.505 275.313 136.515 294.44 139.14 304.45C141.467 313.34 149.325 325.748 162.012 334.778" stroke="black" stroke-width="0.86" stroke-linejoin="round"/>
<path d="M229.055 306.078C228.705 301.44 228.32 295.385 228.128 292.515" stroke="black" stroke-width="0.86" stroke-linejoin="round"/>
<path d="M206.953 309.542C199.095 309.542 195.053 310.312 193.775 311.047C191.01 312.657 189.435 314.39 189.523 317.645C189.573 320.961 190.67 324.176 192.655 326.832C193.701 327.921 195.136 328.55 196.645 328.582C197.275 328.582 199.357 328.197 199.602 327.392C199.847 326.587 199.183 325.87 198.815 325.642C198.028 324.977 197.065 325.205 196.225 325.082C194.142 323.332 201.073 320.322 207.968 320.445" stroke="black" stroke-width="0.86" stroke-miterlimit="10"/>
<path d="M210.855 313.305C213.194 313.305 215.09 312.012 215.09 310.418C215.09 308.823 213.194 307.53 210.855 307.53C208.516 307.53 206.62 308.823 206.62 310.418C206.62 312.012 208.516 313.305 210.855 313.305Z" stroke="black" stroke-width="0.86" stroke-miterlimit="10"/>
<path d="M220.848 363.25C220.568 372.857 229.108 377.583 237.805 378.02" stroke="black" stroke-width="0.86" stroke-miterlimit="10" stroke-linecap="round"/>
<path d="M193.687 372C194.86 410.255 205.727 448.02 215.632 479.52V479.73C214.232 480.027 205.132 484.875 197.467 485.767C193.81 486.205 190.327 488.235 191.185 492.925L231.592 493.1C231.435 490.825 232.782 408.12 232.1 357.492" stroke="black" stroke-width="0.86" stroke-linecap="round" stroke-linejoin="round"/>
<path d="M165.6 357.79C166.685 406.09 177.255 447.565 187.37 479.713C185.953 480.01 176.87 484.858 169.205 485.75C165.53 486.188 162.065 488.218 162.922 492.908H191.623" stroke="black" stroke-width="0.86" stroke-linecap="round" stroke-linejoin="round"/>
<path d="M192.48 223.145C193.022 219.172 193.74 213.31 196.505 210.23C205.377 200.307 215.65 220.502 217.312 226.995C218.852 233.05 210.312 246.7 207.845 247.662C204.152 249.15 198.885 245.65 197.205 242.202" stroke="black" stroke-width="0.86" stroke-miterlimit="10" stroke-linecap="round"/>
<path d="M191.237 260.928C191.237 250.568 190.677 241.153 191.535 230.81" stroke="black" stroke-width="0.86" stroke-miterlimit="10"/>
<path d="M206.847 247.505C207.827 251.513 208.037 256.605 209.77 260.228" stroke="black" stroke-width="0.86" stroke-miterlimit="10"/>
<path d="M193.915 225C189.015 217.79 185.41 227.257 187.283 229.742C187.968 230.411 188.858 230.83 189.811 230.931C190.763 231.033 191.721 230.811 192.533 230.302" stroke="black" stroke-width="0.86" stroke-miterlimit="10" stroke-linecap="round"/>
<path d="M211.31 214.727C211.905 214.727 225.957 211.945 223.98 208.077C221.722 203.685 194.667 217.58 192.987 218.315" stroke="black" stroke-width="0.86" stroke-miterlimit="10"/>
<path d="M203.837 228.202C203.15 227.912 202.403 227.788 201.658 227.84C200.913 227.891 200.191 228.118 199.55 228.5" stroke="black" stroke-width="0.86" stroke-miterlimit="10" stroke-linecap="round"/>
<path d="M213.183 228.202C212.492 227.912 211.742 227.788 210.995 227.84C210.247 227.891 209.522 228.117 208.878 228.5" stroke="black" stroke-width="0.86" stroke-miterlimit="10" stroke-linecap="round"/>
<path d="M206.305 243.62C207.425 242.273 209.805 243.358 210.925 244.075" stroke="black" stroke-width="0.86" stroke-linecap="round" stroke-linejoin="round"/>
<path d="M191.623 226.382C190.876 227.069 189.906 227.46 188.893 227.485" stroke="black" stroke-width="0.86" stroke-miterlimit="10" stroke-linecap="round"/>
<path d="M201.895 231.475C202.301 231.475 202.63 231.146 202.63 230.74C202.63 230.334 202.301 230.005 201.895 230.005C201.489 230.005 201.16 230.334 201.16 230.74C201.16 231.146 201.489 231.475 201.895 231.475Z" fill="black"/>
<path d="M210.977 231.475C211.383 231.475 211.712 231.146 211.712 230.74C211.712 230.334 211.383 230.005 210.977 230.005C210.572 230.005 210.242 230.334 210.242 230.74C210.242 231.146 210.572 231.475 210.977 231.475Z" fill="black"/>
<path d="M208.843 227.1C207.985 229.235 208.983 232.595 209.315 234.817C209.525 236.322 209.858 239.245 207.25 238.317" stroke="black" stroke-width="0.86" stroke-miterlimit="10" stroke-linecap="round"/>
<path d="M186.722 479.713H202.717" stroke="black" stroke-width="0.86" stroke-miterlimit="10"/>
<path d="M215.703 479.713H231.698" stroke="black" stroke-width="0.86" stroke-miterlimit="10"/>
<path d="M231.663 492.838H191.273V496.163H231.663V492.838Z" stroke="black" stroke-width="0.86" stroke-linecap="round" stroke-linejoin="round"/>
<path d="M191.22 492.838H162.922V496.163H191.22V492.838Z" stroke="black" stroke-width="0.86" stroke-linecap="round" stroke-linejoin="round"/>
<path d="M192.043 326.062C191.709 325.452 191.51 324.776 191.458 324.082C191.407 323.388 191.505 322.691 191.745 322.037C192.294 320.722 193.251 319.618 194.475 318.887" stroke="black" stroke-width="0.86" stroke-linecap="round" stroke-linejoin="round"/>
<path d="M190.503 322.353C190.189 321.769 190.002 321.127 189.954 320.466C189.905 319.806 189.997 319.143 190.223 318.52C190.731 317.269 191.626 316.215 192.778 315.51" stroke="black" stroke-width="0.86" stroke-linecap="round" stroke-linejoin="round"/>
<path d="M157.095 339.432C156.903 336.667 160.735 337.297 162.048 337.91" stroke="black" stroke-width="0.86" stroke-miterlimit="10"/>
<path d="M159.143 337.157C158.933 335.407 160.893 335.512 161.855 335.67" stroke="black" stroke-width="0.86" stroke-miterlimit="10"/>
<path d="M214.67 309.228C216.379 309.185 218.084 309.057 219.78 308.843" stroke="black" stroke-width="0.86" stroke-miterlimit="10"/>
<path d="M230 304.135C227.095 306.13 220.655 307.338 220.655 307.338C216.35 313.48 220.06 321.093 220.095 321.093C223.746 320.907 227.381 320.492 230.98 319.85" stroke="white" stroke-width="0.86" stroke-linejoin="round"/>
<path d="M215.055 479.922C213.602 480.29 205.185 484.875 197.555 485.767C193.88 486.205 191.185 488.112 191.255 493.502" stroke="white" stroke-width="0.86" stroke-linejoin="round"/>
<path d="M168.75 204.77V199.922H146.437V204.77C146.493 206.441 147.001 208.066 147.907 209.471C148.813 210.877 150.083 212.01 151.582 212.75C151.997 212.988 152.35 213.319 152.614 213.717C152.878 214.115 153.046 214.568 153.105 215.042C153.067 215.518 152.909 215.976 152.646 216.374C152.383 216.772 152.023 217.097 151.6 217.317C150.09 218.045 148.804 219.168 147.88 220.566C146.956 221.965 146.427 223.588 146.35 225.262V230.25H168.75V225.35C168.67 223.678 168.14 222.059 167.216 220.664C166.292 219.269 165.008 218.149 163.5 217.422C163.07 217.204 162.704 216.878 162.438 216.476C162.171 216.075 162.012 215.611 161.977 215.13C161.977 213.817 163.482 212.855 163.482 212.855C165.018 212.12 166.321 210.977 167.25 209.551C168.18 208.125 168.698 206.471 168.75 204.77V204.77Z" stroke="black" stroke-width="0.86" stroke-miterlimit="10"/>
<path d="M168.452 230.18H146.787C145.821 230.18 145.037 230.964 145.037 231.93V231.948C145.037 232.914 145.821 233.698 146.787 233.698H168.452C169.419 233.698 170.202 232.914 170.202 231.948V231.93C170.202 230.964 169.419 230.18 168.452 230.18Z" stroke="black" stroke-width="0.86" stroke-miterlimit="10"/>
<path d="M168.452 196.405H146.787C145.821 196.405 145.037 197.189 145.037 198.155V198.173C145.037 199.139 145.821 199.923 146.787 199.923H168.452C169.419 199.923 170.202 199.139 170.202 198.173V198.155C170.202 197.189 169.419 196.405 168.452 196.405Z" stroke="black" stroke-width="0.86" stroke-miterlimit="10"/>
<path d="M159.58 217.79V214.92C159.58 213.503 161.33 212.05 162.485 211.28C164.16 210.2 165.429 208.593 166.09 206.713C166.207 206.375 166.242 206.014 166.191 205.66C166.141 205.306 166.006 204.97 165.799 204.679C165.592 204.387 165.318 204.15 165 203.986C164.682 203.823 164.33 203.737 163.972 203.738H151.25C150.893 203.737 150.54 203.823 150.222 203.986C149.905 204.15 149.631 204.387 149.424 204.679C149.216 204.97 149.082 205.306 149.031 205.66C148.98 206.014 149.015 206.375 149.132 206.713C149.794 208.593 151.062 210.2 152.737 211.28C153.927 212.05 155.94 213.38 155.94 214.78V217.825C155.94 218.928 154.19 219.96 153.157 220.52C151.893 221.254 150.826 222.284 150.049 223.522C149.272 224.759 148.807 226.168 148.695 227.625C148.69 227.708 148.703 227.792 148.731 227.87C148.76 227.949 148.804 228.02 148.862 228.081C148.919 228.142 148.988 228.19 149.065 228.223C149.141 228.256 149.224 228.273 149.307 228.273H166.055C166.132 228.273 166.207 228.257 166.278 228.227C166.348 228.197 166.411 228.152 166.464 228.096C166.516 228.041 166.557 227.975 166.583 227.903C166.609 227.831 166.62 227.754 166.615 227.678C166.516 226.21 166.057 224.789 165.279 223.541C164.5 222.293 163.427 221.255 162.152 220.52C161.172 219.978 159.58 218.893 159.58 217.79Z" fill="black"/>
</svg>
